<?xml version="1.0" encoding="UTF-8" standalone="no"?>
<!DOCTYPE svg PUBLIC "-//W3C//DTD SVG 1.1//EN" "http://www.w3.org/Graphics/SVG/1.1/DTD/svg11.dtd">
<svg width="100%" height="100%" viewBox="0 0 495 495" version="1.1" xmlns="http://www.w3.org/2000/svg" xmlns:xlink="http://www.w3.org/1999/xlink" xml:space="preserve" xmlns:serif="http://www.serif.com/" style="fill-rule:evenodd;clip-rule:evenodd;stroke-linejoin:round;stroke-miterlimit:2;">
    <g transform="matrix(1,0,0,1,-920.963,-352.636)">
        <g>
            <g>
                <path d="M1168.33,374.392C1043.93,374.392 942.72,475.599 942.72,600C942.72,724.401 1043.93,825.607 1168.33,825.607C1292.73,825.607 1393.94,724.401 1393.94,600C1393.94,475.599 1292.73,374.392 1168.33,374.392ZM1168.33,847.364C1031.93,847.364 920.963,736.397 920.963,600C920.963,463.603 1031.93,352.636 1168.33,352.636C1304.73,352.636 1415.69,463.603 1415.69,600C1415.69,736.397 1304.73,847.364 1168.33,847.364Z" style="fill-rule:nonzero;"/>
                <path d="M1168.33,742.899C1110.63,742.899 1059.66,715.742 1044.38,676.858C1042.18,671.267 1044.93,664.952 1050.52,662.756C1056.11,660.553 1062.43,663.307 1064.63,668.901C1076.71,699.659 1119.36,721.143 1168.33,721.143C1217.3,721.143 1259.94,699.659 1272.03,668.901C1274.23,663.308 1280.54,660.557 1286.13,662.756C1291.72,664.952 1294.48,671.267 1292.28,676.858C1277,715.742 1226.03,742.899 1168.33,742.899Z" style="fill-rule:nonzero;"/>
                <path d="M1121.4,544.936C1121.4,565.115 1105.04,581.474 1084.86,581.474C1064.68,581.474 1048.32,565.115 1048.32,544.936C1048.32,524.756 1064.68,508.397 1084.86,508.397C1105.04,508.397 1121.4,524.756 1121.4,544.936Z" style="fill-rule:nonzero;"/>
                <path d="M1288.34,544.936C1288.34,565.115 1271.98,581.474 1251.8,581.474C1231.62,581.474 1215.26,565.115 1215.26,544.936C1215.26,524.756 1231.62,508.397 1251.8,508.397C1271.98,508.397 1288.34,524.756 1288.34,544.936Z" style="fill-rule:nonzero;"/>
            </g>
        </g>
    </g>
</svg>
