<?xml version="1.0" encoding="UTF-8" standalone="no"?>
<!DOCTYPE svg PUBLIC "-//W3C//DTD SVG 1.1//EN" "http://www.w3.org/Graphics/SVG/1.1/DTD/svg11.dtd">
<svg width="100%" height="100%" viewBox="0 0 495 495" version="1.1" xmlns="http://www.w3.org/2000/svg" xmlns:xlink="http://www.w3.org/1999/xlink" xml:space="preserve" xmlns:serif="http://www.serif.com/" style="fill-rule:evenodd;clip-rule:evenodd;stroke-linejoin:round;stroke-miterlimit:2;">
    <g transform="matrix(1,0,0,1,-1584.31,-352.636)">
        <g>
            <g>
                <path d="M1831.67,374.392C1707.27,374.392 1606.06,475.599 1606.06,600C1606.06,724.401 1707.27,825.607 1831.67,825.607C1956.07,825.607 2057.28,724.401 2057.28,600C2057.28,475.599 1956.07,374.392 1831.67,374.392ZM1831.67,847.364C1695.27,847.364 1584.31,736.397 1584.31,600C1584.31,463.603 1695.27,352.636 1831.67,352.636C1968.07,352.636 2079.04,463.603 2079.04,600C2079.04,736.397 1968.07,847.364 1831.67,847.364Z" style="fill-rule:nonzero;"/>
                <path d="M1784.74,544.936C1784.74,565.115 1768.38,581.474 1748.2,581.474C1728.02,581.474 1711.66,565.115 1711.66,544.936C1711.66,524.756 1728.02,508.397 1748.2,508.397C1768.38,508.397 1784.74,524.756 1784.74,544.936Z" style="fill-rule:nonzero;"/>
                <path d="M1951.68,544.936C1951.68,565.115 1935.32,581.474 1915.14,581.474C1894.96,581.474 1878.6,565.115 1878.6,544.936C1878.6,524.756 1894.96,508.397 1915.14,508.397C1935.32,508.397 1951.68,524.756 1951.68,544.936Z" style="fill-rule:nonzero;"/>
                <path d="M1945.5,713.328L1717.85,713.328C1711.84,713.328 1706.97,708.457 1706.97,702.449C1706.97,696.442 1711.84,691.571 1717.85,691.571L1945.5,691.571C1951.5,691.571 1956.38,696.442 1956.38,702.449C1956.38,708.457 1951.5,713.328 1945.5,713.328Z" style="fill-rule:nonzero;"/>
            </g>
        </g>
    </g>
</svg>
