<?xml version="1.0" encoding="UTF-8" standalone="no"?>
<!DOCTYPE svg PUBLIC "-//W3C//DTD SVG 1.1//EN" "http://www.w3.org/Graphics/SVG/1.1/DTD/svg11.dtd">
<svg width="100%" height="100%" viewBox="0 0 495 495" version="1.1" xmlns="http://www.w3.org/2000/svg" xmlns:xlink="http://www.w3.org/1999/xlink" xml:space="preserve" xmlns:serif="http://www.serif.com/" style="fill-rule:evenodd;clip-rule:evenodd;stroke-linejoin:round;stroke-miterlimit:2;">
    <g transform="matrix(1,0,0,1,-2247.65,-352.636)">
        <g>
            <g>
                <path d="M2495.01,374.392C2370.61,374.392 2269.41,475.599 2269.41,600C2269.41,724.401 2370.61,825.607 2495.01,825.607C2619.41,825.607 2720.62,724.401 2720.62,600C2720.62,475.599 2619.41,374.392 2495.01,374.392ZM2495.01,847.364C2358.62,847.364 2247.65,736.397 2247.65,600C2247.65,463.603 2358.62,352.636 2495.01,352.636C2631.41,352.636 2742.38,463.603 2742.38,600C2742.38,736.397 2631.41,847.364 2495.01,847.364Z" style="fill-rule:nonzero;"/>
                <path d="M2381.18,742.901C2379.86,742.901 2378.51,742.658 2377.21,742.146C2371.62,739.948 2368.86,733.634 2371.06,728.042C2386.34,689.158 2437.31,662.001 2495.01,662.001C2552.71,662.001 2603.68,689.158 2618.96,728.042C2621.16,733.633 2618.41,739.947 2612.82,742.145C2607.22,744.347 2600.91,741.59 2598.72,735.999C2586.63,705.241 2543.98,683.758 2495.01,683.758C2446.04,683.758 2403.4,705.241 2391.31,735.999C2389.63,740.284 2385.53,742.901 2381.18,742.901Z" style="fill-rule:nonzero;"/>
                <path d="M2448.08,544.936C2448.08,565.115 2431.72,581.474 2411.54,581.474C2391.36,581.474 2375,565.115 2375,544.936C2375,524.756 2391.36,508.397 2411.54,508.397C2431.72,508.397 2448.08,524.756 2448.08,544.936Z" style="fill-rule:nonzero;"/>
                <path d="M2615.02,544.936C2615.02,565.115 2598.66,581.474 2578.48,581.474C2558.3,581.474 2541.95,565.115 2541.95,544.936C2541.95,524.756 2558.3,508.397 2578.48,508.397C2598.66,508.397 2615.02,524.756 2615.02,544.936Z" style="fill-rule:nonzero;"/>
            </g>
        </g>
    </g>
</svg>
