<?xml version="1.0" encoding="UTF-8" standalone="no"?>
<!DOCTYPE svg PUBLIC "-//W3C//DTD SVG 1.1//EN" "http://www.w3.org/Graphics/SVG/1.1/DTD/svg11.dtd">
<svg width="100%" height="100%" viewBox="0 0 150 181" version="1.1" xmlns="http://www.w3.org/2000/svg" xmlns:xlink="http://www.w3.org/1999/xlink" xml:space="preserve" xmlns:serif="http://www.serif.com/" style="fill-rule:evenodd;clip-rule:evenodd;stroke-linejoin:round;stroke-miterlimit:2;">
    <g transform="matrix(1,0,0,1,-450,-27.0183)">
        <g>
            <g transform="matrix(0.341026,0,0,0.341026,315.734,104.082)">
                <path d="M404.716,277.721L404.716,301.631L393.712,301.631L393.712,234.904L420.122,234.904C427.725,234.904 433.611,236.672 437.779,240.207C441.947,243.741 444.032,249.01 444.032,256.013C444.032,263.016 441.947,268.384 437.779,272.119C433.611,275.854 427.725,277.721 420.122,277.721L404.716,277.721ZM404.716,268.318L418.722,268.318C421.589,268.318 423.924,268.001 425.724,267.367C427.525,266.734 428.926,265.833 429.926,264.666C430.926,263.499 431.61,262.215 431.977,260.815C432.344,259.414 432.527,257.947 432.527,256.413C432.527,254.879 432.344,253.378 431.977,251.911C431.61,250.444 430.926,249.127 429.926,247.96C428.926,246.792 427.525,245.875 425.724,245.208C423.924,244.542 421.589,244.208 418.722,244.208L404.716,244.208L404.716,268.318Z" style="fill:rgb(104,125,172);fill-rule:nonzero;"/>
                <path d="M474.944,303.131C472.343,303.131 469.842,302.881 467.441,302.381C465.04,301.881 462.856,301.031 460.888,299.83C458.921,298.63 457.354,296.979 456.186,294.878C455.019,292.777 454.436,290.16 454.436,287.025C454.436,283.29 455.169,280.222 456.637,277.821C458.104,275.42 460.205,273.62 462.939,272.419C465.673,271.219 468.941,270.619 472.743,270.619C475.277,270.619 477.562,270.819 479.596,271.219C481.63,271.619 483.464,272.169 485.098,272.869C486.732,273.57 488.116,274.353 489.249,275.22L490.35,282.123C488.883,281.123 486.915,280.272 484.448,279.572C481.98,278.872 479.312,278.522 476.444,278.522C472.643,278.522 469.758,279.189 467.791,280.522C465.824,281.856 464.84,283.857 464.84,286.525C464.84,288.526 465.407,290.143 466.54,291.377C467.674,292.611 469.091,293.511 470.792,294.078C472.493,294.645 474.277,294.928 476.144,294.928C480.079,294.928 482.98,294.661 484.848,294.128C486.715,293.594 487.649,292.36 487.649,290.426L487.649,269.418C487.649,265.883 486.582,263.299 484.448,261.665C482.313,260.031 479.279,259.214 475.344,259.214C472.543,259.214 469.642,259.664 466.641,260.565C463.639,261.465 461.172,262.715 459.238,264.316L459.238,254.512C461.105,253.245 463.823,252.228 467.391,251.461C470.959,250.694 474.644,250.311 478.445,250.311C480.313,250.311 482.197,250.494 484.097,250.861C485.998,251.228 487.782,251.794 489.45,252.561C491.117,253.328 492.601,254.362 493.901,255.663C495.202,256.963 496.219,258.547 496.953,260.415C497.686,262.282 498.053,264.483 498.053,267.017L498.053,291.027C498.053,294.295 497.036,296.812 495.002,298.58C492.968,300.347 490.217,301.547 486.748,302.181C483.28,302.815 479.346,303.131 474.944,303.131Z" style="fill:rgb(104,125,172);fill-rule:nonzero;"/>
                <path d="M527.265,301.631L506.156,251.411L517.361,251.411L534.567,293.127L532.066,293.428L548.073,251.411L558.977,251.411L537.769,301.631L527.265,301.631Z" style="fill:rgb(104,125,172);fill-rule:nonzero;"/>
                <path d="M587.588,303.131C582.653,303.131 578.368,302.131 574.733,300.13C571.099,298.129 568.297,295.162 566.33,291.227C564.363,287.292 563.379,282.49 563.379,276.821C563.379,268.084 565.43,261.465 569.531,256.963C573.633,252.461 579.352,250.21 586.688,250.21C592.09,250.21 596.459,251.411 599.793,253.812C603.128,256.213 605.546,259.564 607.046,263.866C608.547,268.168 609.264,273.186 609.197,278.922L569.681,278.922L569.381,271.119L601.194,271.119L598.693,273.62C598.493,268.484 597.426,264.733 595.492,262.365C593.557,259.998 590.523,258.814 586.388,258.814C583.72,258.814 581.453,259.364 579.585,260.465C577.718,261.565 576.301,263.432 575.334,266.067C574.367,268.701 573.883,272.319 573.883,276.921C573.883,282.523 575.183,286.775 577.785,289.676C580.386,292.577 584.22,294.028 589.289,294.028C591.557,294.028 593.674,293.828 595.642,293.428C597.609,293.027 599.426,292.511 601.094,291.877C602.761,291.243 604.195,290.626 605.395,290.026L605.395,299.73C603.061,300.73 600.427,301.547 597.492,302.181C594.558,302.815 591.257,303.131 587.588,303.131Z" style="fill:rgb(104,125,172);fill-rule:nonzero;"/>
                <path d="M621.802,301.631L621.802,234.904L633.307,234.904L657.216,270.218L650.713,271.019L675.823,234.904L687.128,234.904L687.128,301.631L676.123,301.631L676.123,244.308L679.225,246.409L653.815,281.523L629.605,246.709L632.506,243.508L632.506,301.631L621.802,301.631Z" style="fill:rgb(104,125,172);fill-rule:nonzero;"/>
                <path d="M702.734,301.631L702.734,251.711L713.238,251.711L713.338,301.631L702.734,301.631ZM702.434,243.408L702.434,233.904L713.638,233.904L713.638,243.408L702.434,243.408Z" style="fill:rgb(104,125,172);fill-rule:nonzero;"/>
                <path d="M728.444,255.513C729.911,254.779 731.562,254.095 733.396,253.462C735.23,252.828 737.181,252.278 739.248,251.811C741.316,251.344 743.417,250.977 745.551,250.711C747.685,250.444 749.753,250.311 751.753,250.311C756.489,250.311 760.357,250.961 763.358,252.261C766.359,253.562 768.593,255.563 770.061,258.264C771.528,260.965 772.262,264.349 772.262,268.418L772.262,301.631L761.757,301.631L761.757,269.818C761.757,268.551 761.607,267.301 761.307,266.067C761.007,264.833 760.44,263.699 759.606,262.665C758.773,261.632 757.572,260.815 756.005,260.214C754.438,259.614 752.387,259.314 749.853,259.314C748.052,259.314 746.201,259.481 744.3,259.814C742.4,260.148 740.616,260.615 738.948,261.215L738.948,301.631L728.444,301.631L728.444,255.513Z" style="fill:rgb(104,125,172);fill-rule:nonzero;"/>
                <path d="M809.276,303.131C806.208,303.131 803.207,302.748 800.273,301.981C797.338,301.214 794.67,299.847 792.269,297.879C789.868,295.912 787.968,293.161 786.567,289.626C785.167,286.091 784.466,281.523 784.466,275.921C784.466,267.984 786.4,261.715 790.269,257.113C794.137,252.511 800.006,250.21 807.876,250.21C809.143,250.21 810.71,250.377 812.577,250.711C814.445,251.044 816.346,251.528 818.28,252.161C820.214,252.795 821.848,253.612 823.182,254.612L820.481,258.114L820.481,230.403L830.885,230.403L830.885,291.127C830.885,293.194 830.234,294.995 828.934,296.529C827.633,298.063 825.916,299.313 823.782,300.28C821.648,301.247 819.313,301.964 816.779,302.431C814.245,302.898 811.744,303.131 809.276,303.131ZM809.576,294.028C812.577,294.028 815.145,293.661 817.279,292.927C819.414,292.194 820.481,291.227 820.481,290.026L820.481,262.115C818.747,261.115 816.913,260.381 814.978,259.914C813.044,259.447 811.177,259.214 809.376,259.214C806.108,259.214 803.424,259.864 801.323,261.165C799.222,262.465 797.672,264.366 796.671,266.867C795.671,269.368 795.171,272.453 795.171,276.121C795.171,279.455 795.571,282.473 796.371,285.174C797.171,287.875 798.622,290.026 800.723,291.627C802.824,293.227 805.775,294.028 809.576,294.028Z" style="fill:rgb(104,125,172);fill-rule:nonzero;"/>
            </g>
            <g transform="matrix(-0.591787,7.24731e-17,-7.24731e-17,-0.591787,736.759,279.962)">
                <circle cx="358.6" cy="301.46" r="125.963" style="fill:none;"/>
                <clipPath id="_clip1">
                    <circle cx="358.6" cy="301.46" r="125.963"/>
                </clipPath>
                <g clip-path="url(#_clip1)">
                    <g transform="matrix(1.6898,0,0,1.6898,-582.064,129.842)">
                        <path d="M455.152,145.402C465.058,144.705 474.956,143.852 484.8,143C508,141 531,139 554,140C577,141 600,145 623,145C629.591,145 636.183,144.671 642.779,144.156L642.779,175.497C642.779,176.096 642.702,177.19 642.591,178.585C636.058,178.839 629.529,179 623,179C600,179 577,177 554,177C531,177 508,179 484.8,181C475.121,181.838 465.39,182.676 455.65,183.367C455.433,172.48 455.115,158.502 455.152,145.402Z" style="fill:rgb(77,100,145);"/>
                    </g>
                    <g transform="matrix(1.6898,0,0,1.6898,-582.064,128.152)">
                        <path d="M396.859,122.637C402.961,122.861 409.074,123 415.2,123C438.3,123 461.7,121 484.8,119C508,117 531,115 554,116C577,117 600,121 623,121C640.483,121 657.966,118.689 675.537,116.702C676.36,125.391 677.16,133.993 677.562,142.474C659.309,144.508 641.155,147 623,147C600,147 577,143 554,142C531,141 508,143 484.8,145C461.7,147 438.3,149 415.2,149C409.231,149 403.276,148.868 397.331,148.654C397.111,140.218 396.599,131.403 396.859,122.637Z" style="fill:rgb(104,125,172);"/>
                    </g>
                    <g transform="matrix(1.6898,0,0,1.6898,-582.064,129.842)">
                        <path d="M446.105,97.992C459.028,97.223 471.96,96.112 484.8,95C508,93 531,91 554,92C577,93 600,97 623,97C633.231,97 643.463,96.208 653.712,95.154C654.633,102.55 655.981,110.38 657.383,113.185C658.039,114.496 658.353,117.216 658.46,120.648C646.622,121.945 634.811,123 623,123C600,123 577,119 554,118C531,117 508,119 484.8,121C471.96,122.112 459.028,123.223 446.105,123.992L446.105,97.992Z" style="fill:rgb(158,176,206);"/>
                    </g>
                    <g transform="matrix(1.6898,0,0,1.6898,-582.064,128.152)">
                        <path d="M456.899,67.557C466.222,66.963 475.535,66.401 484.8,66C508,65 531,65 554,66C577,67 600,69 623,69C631.537,69 640.074,68.724 648.621,68.327L648.621,97.654C640.074,98.449 631.537,99 623,99C600,99 577,95 554,94C531,93 508,95 484.8,97C474.267,97.912 463.671,98.824 453.07,99.546C454.463,91.752 455.981,84.81 456.815,83.976C456.985,83.806 456.953,75.119 456.899,67.557Z" style="fill:rgb(184,200,222);"/>
                    </g>
                    <g transform="matrix(1.6898,0,0,1.6898,-582.064,129.842)">
                        <path d="M465.319,23L654.077,23C656.159,38.283 658.516,53.669 659.16,69.786C647.088,70.452 635.044,71 623,71C600,71 577,69 554,68C531,67 508,67 484.8,68C474.683,68.438 464.509,69.068 454.328,69.721C456.75,56.783 460.572,44.607 463.631,32.373C464.225,29.998 464.778,26.722 465.319,23Z" style="fill:rgb(242,216,187);"/>
                    </g>
                </g>
            </g>
        </g>
    </g>
</svg>
