<?xml version="1.0" encoding="UTF-8" standalone="no"?>
<!DOCTYPE svg PUBLIC "-//W3C//DTD SVG 1.1//EN" "http://www.w3.org/Graphics/SVG/1.1/DTD/svg11.dtd">
<svg width="100%" height="100%" viewBox="0 0 497 150" version="1.1" xmlns="http://www.w3.org/2000/svg" xmlns:xlink="http://www.w3.org/1999/xlink" xml:space="preserve" xmlns:serif="http://www.serif.com/" style="fill-rule:evenodd;clip-rule:evenodd;stroke-linejoin:round;stroke-miterlimit:2;">
    <g transform="matrix(1,0,0,1,-3.88848,-241.582)">
        <g transform="matrix(-0.591787,7.24731e-17,-7.24731e-17,-0.591787,290.647,494.526)">
            <circle cx="358.6" cy="301.46" r="125.963" style="fill:none;"/>
            <clipPath id="_clip1">
                <circle cx="358.6" cy="301.46" r="125.963"/>
            </clipPath>
            <g clip-path="url(#_clip1)">
                <g transform="matrix(1.6898,0,0,1.6898,-582.064,129.842)">
                    <path d="M455.152,145.402C465.058,144.705 474.956,143.852 484.8,143C508,141 531,139 554,140C577,141 600,145 623,145C629.591,145 636.183,144.671 642.779,144.156L642.779,175.497C642.779,176.096 642.702,177.19 642.591,178.585C636.058,178.839 629.529,179 623,179C600,179 577,177 554,177C531,177 508,179 484.8,181C475.121,181.838 465.39,182.676 455.65,183.367C455.433,172.48 455.115,158.502 455.152,145.402Z" style="fill:rgb(77,100,145);"/>
                </g>
                <g transform="matrix(1.6898,0,0,1.6898,-582.064,128.152)">
                    <path d="M396.859,122.637C402.961,122.861 409.074,123 415.2,123C438.3,123 461.7,121 484.8,119C508,117 531,115 554,116C577,117 600,121 623,121C640.483,121 657.966,118.689 675.537,116.702C676.36,125.391 677.16,133.993 677.562,142.474C659.309,144.508 641.155,147 623,147C600,147 577,143 554,142C531,141 508,143 484.8,145C461.7,147 438.3,149 415.2,149C409.231,149 403.276,148.868 397.331,148.654C397.111,140.218 396.599,131.403 396.859,122.637Z" style="fill:rgb(104,125,172);"/>
                </g>
                <g transform="matrix(1.6898,0,0,1.6898,-582.064,129.842)">
                    <path d="M446.105,97.992C459.028,97.223 471.96,96.112 484.8,95C508,93 531,91 554,92C577,93 600,97 623,97C633.231,97 643.463,96.208 653.712,95.154C654.633,102.55 655.981,110.38 657.383,113.185C658.039,114.496 658.353,117.216 658.46,120.648C646.622,121.945 634.811,123 623,123C600,123 577,119 554,118C531,117 508,119 484.8,121C471.96,122.112 459.028,123.223 446.105,123.992L446.105,97.992Z" style="fill:rgb(158,176,206);"/>
                </g>
                <g transform="matrix(1.6898,0,0,1.6898,-582.064,128.152)">
                    <path d="M456.899,67.557C466.222,66.963 475.535,66.401 484.8,66C508,65 531,65 554,66C577,67 600,69 623,69C631.537,69 640.074,68.724 648.621,68.327L648.621,97.654C640.074,98.449 631.537,99 623,99C600,99 577,95 554,94C531,93 508,95 484.8,97C474.267,97.912 463.671,98.824 453.07,99.546C454.463,91.752 455.981,84.81 456.815,83.976C456.985,83.806 456.953,75.119 456.899,67.557Z" style="fill:rgb(184,200,222);"/>
                </g>
                <g transform="matrix(1.6898,0,0,1.6898,-582.064,129.842)">
                    <path d="M465.319,23L654.077,23C656.159,38.283 658.516,53.669 659.16,69.786C647.088,70.452 635.044,71 623,71C600,71 577,69 554,68C531,67 508,67 484.8,68C474.683,68.438 464.509,69.068 454.328,69.721C456.75,56.783 460.572,44.607 463.631,32.373C464.225,29.998 464.778,26.722 465.319,23Z" style="fill:rgb(242,216,187);"/>
                </g>
            </g>
        </g>
        <g transform="matrix(1,0,0,1,170.939,285.277)">
            <text x="0px" y="51.208px" style="font-family:'MavenPro-Medium', 'Maven Pro';font-weight:500;font-size:74px;fill:rgb(104,125,172);">Pa<tspan x="86.728px 127.798px " y="51.208px 51.208px ">ve</tspan>Mind</text>
        </g>
    </g>
</svg>
