<?xml version="1.0" encoding="UTF-8" standalone="no"?>
<!DOCTYPE svg PUBLIC "-//W3C//DTD SVG 1.1//EN" "http://www.w3.org/Graphics/SVG/1.1/DTD/svg11.dtd">
<svg width="100%" height="100%" viewBox="0 0 497 150" version="1.1" xmlns="http://www.w3.org/2000/svg" xmlns:xlink="http://www.w3.org/1999/xlink" xml:space="preserve" xmlns:serif="http://www.serif.com/" style="fill-rule:evenodd;clip-rule:evenodd;stroke-linejoin:round;stroke-miterlimit:2;">
    <g transform="matrix(1,0,0,1,-3.88848,-416.836)">
        <g>
            <g transform="matrix(-0.591787,7.24731e-17,-7.24731e-17,-0.591787,290.647,669.78)">
                <circle cx="358.6" cy="301.46" r="125.963" style="fill:none;"/>
                <clipPath id="_clip1">
                    <circle cx="358.6" cy="301.46" r="125.963"/>
                </clipPath>
                <g clip-path="url(#_clip1)">
                    <g transform="matrix(1.6898,0,0,1.6898,-582.064,129.842)">
                        <path d="M455.152,145.402C465.058,144.705 474.956,143.852 484.8,143C508,141 531,139 554,140C577,141 600,145 623,145C629.591,145 636.183,144.671 642.779,144.156L642.779,175.497C642.779,176.096 642.702,177.19 642.591,178.585C636.058,178.839 629.529,179 623,179C600,179 577,177 554,177C531,177 508,179 484.8,181C475.121,181.838 465.39,182.676 455.65,183.367C455.433,172.48 455.115,158.502 455.152,145.402Z" style="fill:rgb(77,100,145);"/>
                    </g>
                    <g transform="matrix(1.6898,0,0,1.6898,-582.064,128.152)">
                        <path d="M396.859,122.637C402.961,122.861 409.074,123 415.2,123C438.3,123 461.7,121 484.8,119C508,117 531,115 554,116C577,117 600,121 623,121C640.483,121 657.966,118.689 675.537,116.702C676.36,125.391 677.16,133.993 677.562,142.474C659.309,144.508 641.155,147 623,147C600,147 577,143 554,142C531,141 508,143 484.8,145C461.7,147 438.3,149 415.2,149C409.231,149 403.276,148.868 397.331,148.654C397.111,140.218 396.599,131.403 396.859,122.637Z" style="fill:rgb(104,125,172);"/>
                    </g>
                    <g transform="matrix(1.6898,0,0,1.6898,-582.064,129.842)">
                        <path d="M446.105,97.992C459.028,97.223 471.96,96.112 484.8,95C508,93 531,91 554,92C577,93 600,97 623,97C633.231,97 643.463,96.208 653.712,95.154C654.633,102.55 655.981,110.38 657.383,113.185C658.039,114.496 658.353,117.216 658.46,120.648C646.622,121.945 634.811,123 623,123C600,123 577,119 554,118C531,117 508,119 484.8,121C471.96,122.112 459.028,123.223 446.105,123.992L446.105,97.992Z" style="fill:rgb(158,176,206);"/>
                    </g>
                    <g transform="matrix(1.6898,0,0,1.6898,-582.064,128.152)">
                        <path d="M456.899,67.557C466.222,66.963 475.535,66.401 484.8,66C508,65 531,65 554,66C577,67 600,69 623,69C631.537,69 640.074,68.724 648.621,68.327L648.621,97.654C640.074,98.449 631.537,99 623,99C600,99 577,95 554,94C531,93 508,95 484.8,97C474.267,97.912 463.671,98.824 453.07,99.546C454.463,91.752 455.981,84.81 456.815,83.976C456.985,83.806 456.953,75.119 456.899,67.557Z" style="fill:rgb(184,200,222);"/>
                    </g>
                    <g transform="matrix(1.6898,0,0,1.6898,-582.064,129.842)">
                        <path d="M465.319,23L654.077,23C656.159,38.283 658.516,53.669 659.16,69.786C647.088,70.452 635.044,71 623,71C600,71 577,69 554,68C531,67 508,67 484.8,68C474.683,68.438 464.509,69.068 454.328,69.721C456.75,56.783 460.572,44.607 463.631,32.373C464.225,29.998 464.778,26.722 465.319,23Z" style="fill:rgb(242,216,187);"/>
                    </g>
                </g>
            </g>
            <g transform="matrix(0.747126,0,0,0.20566,170.939,460.53)">
                <path d="M18.72,162.997L18.72,248.993L7.825,248.993L7.825,8.995L33.973,8.995C41.5,8.995 47.328,15.352 51.454,28.066C55.581,40.779 57.645,59.73 57.645,84.917C57.645,110.104 55.581,129.414 51.454,142.847C47.328,156.28 41.5,162.997 33.973,162.997L18.72,162.997ZM18.72,129.174L32.586,129.174C35.426,129.174 37.737,128.035 39.519,125.756C41.302,123.477 42.689,120.239 43.679,116.041C44.67,111.843 45.347,107.225 45.71,102.188C46.073,97.15 46.255,91.873 46.255,86.356C46.255,80.839 46.073,75.442 45.71,70.164C45.347,64.887 44.67,60.149 43.679,55.951C42.689,51.754 41.302,48.455 39.519,46.057C37.737,43.658 35.426,42.458 32.586,42.458L18.72,42.458L18.72,129.174Z" style="fill:rgb(104,125,172);fill-rule:nonzero;"/>
                <path d="M88.25,254.39C85.675,254.39 83.199,253.491 80.822,251.692C78.445,249.892 76.282,246.834 74.334,242.516C72.386,238.198 70.835,232.262 69.679,224.705C68.523,217.149 67.946,207.734 67.946,196.46C67.946,183.027 68.672,171.992 70.125,163.357C71.577,154.721 73.657,148.244 76.365,143.927C79.072,139.609 82.307,137.45 86.071,137.45C88.58,137.45 90.842,138.17 92.856,139.609C94.87,141.048 96.686,143.027 98.303,145.546C99.921,148.064 101.291,150.883 102.414,154.001L103.503,178.829C102.051,175.231 100.103,172.172 97.66,169.653C95.216,167.135 92.575,165.875 89.736,165.875C85.972,165.875 83.116,168.274 81.168,173.072C79.22,177.869 78.246,185.066 78.246,194.661C78.246,201.857 78.808,207.674 79.93,212.112C81.053,216.55 82.456,219.788 84.14,221.827C85.824,223.866 87.59,224.885 89.439,224.885C93.335,224.885 96.207,223.926 98.056,222.007C99.905,220.088 100.829,215.65 100.829,208.694L100.829,133.132C100.829,120.419 99.773,111.123 97.66,105.246C95.547,99.369 92.542,96.431 88.646,96.431C85.873,96.431 83.001,98.05 80.029,101.288C77.058,104.527 74.615,109.024 72.7,114.781L72.7,79.519C74.549,74.962 77.24,71.304 80.772,68.545C84.305,65.786 87.953,64.407 91.717,64.407C93.566,64.407 95.431,65.067 97.313,66.386C99.195,67.705 100.961,69.744 102.612,72.503C104.263,75.262 105.732,78.98 107.019,83.657C108.307,88.335 109.314,94.032 110.04,100.749C110.767,107.465 111.13,115.381 111.13,124.496L111.13,210.852C111.13,222.606 110.123,231.662 108.109,238.019C106.095,244.375 103.371,248.693 99.938,250.972C96.504,253.251 92.608,254.39 88.25,254.39Z" style="fill:rgb(104,125,172);fill-rule:nonzero;"/>
                <path d="M140.051,248.993L119.153,68.365L130.246,68.365L147.282,218.409L144.805,219.488L160.653,68.365L171.449,68.365L150.451,248.993L140.051,248.993Z" style="fill:rgb(104,125,172);fill-rule:nonzero;"/>
                <path d="M199.776,254.39C194.89,254.39 190.647,250.792 187.049,243.596C183.45,236.399 180.677,225.725 178.729,211.572C176.781,197.419 175.807,180.148 175.807,159.758C175.807,128.335 177.837,104.527 181.898,88.335C185.959,72.143 191.621,64.047 198.885,64.047C204.233,64.047 208.558,68.365 211.86,77.001C215.161,85.636 217.555,97.69 219.041,113.162C220.526,128.634 221.236,146.685 221.17,167.315L182.047,167.315L181.75,139.249L213.246,139.249L210.77,148.244C210.572,129.774 209.516,116.281 207.601,107.765C205.686,99.249 202.681,94.992 198.588,94.992C195.946,94.992 193.701,96.971 191.852,100.929C190.004,104.886 188.6,111.603 187.643,121.078C186.686,130.553 186.207,143.567 186.207,160.118C186.207,180.268 187.494,195.56 190.07,205.995C192.645,216.43 196.442,221.647 201.46,221.647C203.705,221.647 205.801,220.927 207.749,219.488C209.697,218.049 211.497,216.19 213.147,213.911C214.798,211.632 216.218,209.413 217.406,207.254L217.406,242.156C215.095,245.755 212.487,248.693 209.582,250.972C206.676,253.251 203.408,254.39 199.776,254.39Z" style="fill:rgb(104,125,172);fill-rule:nonzero;"/>
                <path d="M233.65,248.993L233.65,8.995L245.04,8.995L268.712,136.011L262.274,138.889L287.135,8.995L298.327,8.995L298.327,248.993L287.432,248.993L287.432,42.818L290.502,50.374L265.345,176.67L241.376,51.454L244.248,39.94L244.248,248.993L233.65,248.993Z" style="fill:rgb(104,125,172);fill-rule:nonzero;"/>
                <path d="M313.778,248.993L313.778,69.445L324.178,69.445L324.277,248.993L313.778,248.993ZM313.481,39.58L313.481,5.397L324.574,5.397L324.574,39.58L313.481,39.58Z" style="fill:rgb(104,125,172);fill-rule:nonzero;"/>
                <path d="M339.233,83.118C340.686,80.479 342.32,78.02 344.136,75.741C345.952,73.463 347.883,71.484 349.93,69.804C351.977,68.125 354.057,66.806 356.17,65.846C358.283,64.887 360.33,64.407 362.311,64.407C366.999,64.407 370.829,66.746 373.8,71.424C376.772,76.101 378.984,83.298 380.436,93.013C381.889,102.728 382.615,114.901 382.615,129.534L382.615,248.993L372.215,248.993L372.215,134.571C372.215,130.014 372.067,125.516 371.77,121.078C371.473,116.64 370.911,112.563 370.086,108.844C369.261,105.126 368.072,102.188 366.52,100.029C364.969,97.87 362.938,96.791 360.429,96.791C358.646,96.791 356.814,97.39 354.932,98.59C353.05,99.789 351.284,101.468 349.633,103.627L349.633,248.993L339.233,248.993L339.233,83.118Z" style="fill:rgb(104,125,172);fill-rule:nonzero;"/>
                <path d="M419.262,254.39C416.225,254.39 413.254,253.011 410.348,250.252C407.443,247.494 404.802,242.576 402.425,235.5C400.047,228.423 398.166,218.529 396.779,205.815C395.392,193.101 394.699,176.67 394.699,156.52C394.699,127.975 396.614,105.426 400.444,88.875C404.273,72.323 410.084,64.047 417.876,64.047C419.13,64.047 420.682,64.647 422.531,65.846C424.38,67.046 426.262,68.785 428.177,71.064C430.091,73.343 431.709,76.281 433.03,79.879L430.356,92.473L430.356,-7.196L440.656,-7.196L440.656,211.212C440.656,218.648 440.013,225.125 438.725,230.642C437.437,236.16 435.737,240.657 433.624,244.135C431.511,247.614 429.2,250.192 426.691,251.871C424.182,253.551 421.706,254.39 419.262,254.39ZM419.56,221.647C422.531,221.647 425.073,220.328 427.186,217.689C429.299,215.05 430.356,211.572 430.356,207.254L430.356,106.865C428.639,103.267 426.823,100.629 424.908,98.95C422.993,97.27 421.144,96.431 419.361,96.431C416.126,96.431 413.468,98.77 411.388,103.447C409.308,108.125 407.773,114.961 406.783,123.957C405.792,132.952 405.297,144.047 405.297,157.24C405.297,169.234 405.693,180.088 406.485,189.803C407.278,199.518 408.714,207.254 410.794,213.011C412.874,218.768 415.796,221.647 419.56,221.647Z" style="fill:rgb(104,125,172);fill-rule:nonzero;"/>
            </g>
        </g>
    </g>
</svg>
